<svg width="15" height="15" viewBox="0 0 15 15" fill="none" xmlns="http://www.w3.org/2000/svg">
<g clip-path="url(#clip0_133_121)">
<path d="M4.3033 0.767877C3.32699 -0.208433 1.74408 -0.208433 0.767767 0.767878C-0.208544 1.74419 -0.208544 3.3271 0.767767 4.30341L9.96016 13.4958C10.9365 14.4721 12.5194 14.4721 13.4957 13.4958C14.472 12.5195 14.472 10.9366 13.4957 9.96027L4.3033 0.767877Z" fill="#999B9D"/>
<path d="M0.767877 9.96013C-0.208434 10.9364 -0.208433 12.5194 0.767878 13.4957C1.74419 14.472 3.3271 14.472 4.30341 13.4957L13.4958 4.30327C14.4721 3.32696 14.4721 1.74405 13.4958 0.767739C12.5195 -0.208572 10.9366 -0.208571 9.96026 0.76774L0.767877 9.96013Z" fill="#999B9D"/>
</g>
<defs>
<clipPath id="clip0_133_121">
<rect width="15" height="15" fill="white"/>
</clipPath>
</defs>
</svg>
