<svg width="196" height="68" viewBox="0 0 196 68" fill="none" xmlns="http://www.w3.org/2000/svg">
<rect x="2" y="2" width="191.273" height="64" rx="7" stroke="white" stroke-width="4"/>
<rect x="17" y="22.0251" width="10.9244" height="10.9244" rx="1" fill="#32A041"/>
<rect x="30.0254" y="22.0251" width="10.9244" height="10.9244" rx="1" fill="#32A041"/>
<rect x="17" y="35.0505" width="10.9244" height="10.9244" rx="1" fill="#32A041"/>
<rect x="30.0254" y="35.0505" width="10.9244" height="10.9244" rx="1" fill="#32A041"/>
<rect x="43.0505" y="35.0505" width="10.9244" height="10.9244" rx="1" fill="#32A041"/>
<rect x="17" y="48.0757" width="10.9244" height="10.9244" rx="1" fill="#32A041"/>
<rect x="30.0254" y="48.0757" width="10.9244" height="10.9244" rx="1" fill="#32A041"/>
<circle cx="22.4622" cy="14.4622" r="5.46219" fill="#C8191E"/>
<rect x="30.0254" y="9" width="10.9244" height="10.9244" rx="1" fill="#32A041"/>
<rect x="43.0505" y="9" width="10.9244" height="10.9244" rx="1" fill="#32A041"/>
<path d="M85.2578 50H77.3721L77.4209 43.4082H85.2578C86.8854 43.4082 88.2607 43.0176 89.3838 42.2363C90.5231 41.4551 91.3857 40.2913 91.9717 38.7451C92.5739 37.1826 92.875 35.262 92.875 32.9834V31.4453C92.875 29.7363 92.7041 28.2389 92.3623 26.9531C92.0368 25.651 91.5485 24.5687 90.8975 23.7061C90.2464 22.8271 89.4326 22.168 88.4561 21.7285C87.4958 21.2891 86.389 21.0693 85.1357 21.0693H77.2256V14.4531H85.1357C87.5446 14.4531 89.75 14.8682 91.752 15.6982C93.7702 16.512 95.5117 17.6839 96.9766 19.2139C98.4577 20.7275 99.597 22.526 100.395 24.6094C101.208 26.6764 101.615 28.9714 101.615 31.4941V32.9834C101.615 35.4899 101.208 37.7848 100.395 39.8682C99.597 41.9515 98.4658 43.75 97.001 45.2637C95.5361 46.7773 93.8027 47.9492 91.8008 48.7793C89.8151 49.5931 87.6341 50 85.2578 50ZM82.2793 14.4531V50H73.71V14.4531H82.2793ZM130.546 43.4082V50H111.601V43.4082H130.546ZM114.652 14.4531V50H106.083V14.4531H114.652ZM128.104 28.5645V34.9365H111.601V28.5645H128.104ZM130.619 14.4531V21.0693H111.601V14.4531H130.619ZM141.508 14.4531L147.318 26.2695L153.129 14.4531H162.895L152.982 32.0801L163.163 50H153.3L147.318 37.9639L141.337 50H131.449L141.654 32.0801L131.718 14.4531H141.508Z" fill="white"/>
</svg>
